<?xml version="1.0" encoding="utf-8"?>
<!-- Generator: Adobe Illustrator 25.1.0, SVG Export Plug-In . SVG Version: 6.00 Build 0)  -->
<svg version="1.1" id="Layer_1" xmlns="http://www.w3.org/2000/svg" xmlns:xlink="http://www.w3.org/1999/xlink" x="0px" y="0px"
	 viewBox="0 0 201.7 29.2" style="enable-background:new 0 0 201.7 29.2;" xml:space="preserve">
<style type="text/css">
	.st0{fill:#FFFFFF;}
</style>
<g>
	<g>
		<g>
			<path class="st0" d="M21.7,7.4c0-0.5-0.3-1-1-1H6.6c-0.7,0-1,0.4-1,1c0,0.5,0.3,1,1,1h2c0.7,0,1.2,0.6,1.2,1.2v12.9
				c0,0.7,0.6,1.2,1.2,1.2h5.1c0.7,0,1.2-0.6,1.2-1.2V9.6c0-0.7,0.6-1.2,1.2-1.2h2C21.4,8.3,21.7,7.9,21.7,7.4z"/>
		</g>
		<g>
			<path class="st0" d="M53.9,6.4c-0.5,0-0.9,0.3-0.9,1v2.9c0,0.7-0.5,1-1.2,0.8L40.3,6.8c-0.6-0.2-1.7-0.5-2-0.4
				c-0.5,0.1-0.9,0.6-0.9,1.2v15.1c0,0.7,0.4,1,0.9,1c0.5,0,0.9-0.3,0.9-1v-2.9c0-0.7,0.5-1,1.2-0.8l11.5,4.3c0.6,0.2,1.6,0.4,2,0.4
				c0.5,0,0.9-0.6,0.9-1.2V7.4C54.8,6.7,54.4,6.4,53.9,6.4z"/>
		</g>
		<g>
			<path class="st0" d="M91.9,15.1c0,4.9-4,8.8-8.8,8.8c-4.9,0-8.8-4-8.8-8.8c0-4.9,4-8.8,8.8-8.8C88,6.2,91.9,10.2,91.9,15.1z"/>
		</g>
		<g>
			<path class="st0" d="M65.2,12.4c-0.4,0-0.7-0.3-0.7-0.7V6.9c0-0.4,0-0.7,0-0.7c0,0,0,0,0,0c-4.9,0-8.8,4-8.8,8.8
				c0,4.9,4,8.8,8.8,8.8c4.9,0,8.9-4,8.9-8.8c0-0.9-0.3-2-0.3-2c-0.1-0.4-0.5-0.7-0.9-0.7H65.2z"/>
		</g>
		<g>
			<path class="st0" d="M28.6,21.5c0.5,0,1.2,0.4,1.5,0.9l0.3,0.5c0.3,0.5,0.9,0.9,1.5,0.9h4.3c0.5,0,0.8-0.4,0.5-0.9L28.1,6.7
				c-0.3-0.5-0.7-0.5-0.9,0l-8.5,16.1c-0.3,0.5,0,0.9,0.5,0.9h0.3c0.5,0,1.1-0.2,1.3-0.6l0.4-0.7c0.3-0.5,0.9-0.9,1.5-0.9H28.6z"/>
		</g>
	</g>
	<g>
		<path class="st0" d="M112.3,21.9h-0.9v-2.1c-0.9,1.5-2.4,2.4-4.4,2.4c-3.1,0-5.3-2.2-5.3-5.3V9.2h0.9v7.7c0,2.6,1.9,4.4,4.4,4.4
			c2.6,0,4.4-1.8,4.4-4.4V9.2h0.9V21.9z"/>
		<path class="st0" d="M126,21.9h-0.9v-7.7c0-2.8-1.5-4.5-4.3-4.5c-2.6,0-4.6,1.9-4.6,4.5v7.7h-0.9V9.2h0.9v2.1
			c0.9-1.5,2.6-2.5,4.6-2.5c3.3,0,5.2,2,5.2,5.3V21.9z"/>
		<path class="st0" d="M130,7.1h-0.9V4.8h0.9V7.1z M130,21.9h-0.9V9.2h0.9V21.9z"/>
		<path class="st0" d="M137.4,21.9h-1l-4.9-12.7h1l4.4,11.4l4.4-11.4h1L137.4,21.9z"/>
		<path class="st0" d="M143.3,15.6c0,3.3,2.5,5.7,5.6,5.7c3,0,4.3-1.7,5-3.3h1c-0.9,2.7-2.9,4.2-5.9,4.2c-3.6,0-6.5-2.9-6.5-6.6
			s2.8-6.7,6.3-6.7c3.8,0,6.4,3.4,6.3,6.6H143.3z M154,14.7c-0.4-2.7-2.7-4.8-5.3-4.8c-2.7,0-4.9,2.1-5.3,4.8H154z"/>
		<path class="st0" d="M163.1,9.8c-1.7-0.1-3,0.3-3.7,1.1c-0.9,0.8-1.4,2-1.4,3.4v7.7H157V9.2h0.9v2.1c0.2-0.4,0.5-0.8,0.8-1.1
			c1.1-1,2.6-1.5,4.3-1.3V9.8z"/>
		<path class="st0" d="M173,20.7c-0.9,0.9-2.4,1.5-4.2,1.5c-3.2,0-5.5-1.4-5.9-4h0.9c0.4,2,2.3,3.1,5,3.1c1.5,0,2.8-0.5,3.5-1.3
			c0.4-0.5,0.7-1.1,0.6-1.7c0-1.6-1.3-2.3-4.4-2.8c-2.2-0.3-4.9-0.7-5-3.2c0-1.7,1.6-3.4,4.8-3.4c2.8,0,4.7,1.3,5.2,3.5h-0.9
			c-0.5-1.7-2-2.7-4.2-2.7c-2.3,0-3.9,1.1-3.9,2.6c0,1.5,1.4,1.9,4.2,2.3c2.6,0.4,5.1,1.1,5.2,3.6C173.9,19.2,173.6,20.1,173,20.7z"
			/>
		<path class="st0" d="M177.1,7.1h-0.9V4.8h0.9V7.1z M177.1,21.9h-0.9V9.2h0.9V21.9z"/>
		<path class="st0" d="M181.3,17.5c0,2.2,1,3.6,3.4,3.5v0.8c-2.7,0.2-4.3-1.6-4.3-4.4v-7.4h-1.7V9.2h1.7V6.5h0.9v2.7h3.4v0.9h-3.4
			V17.5z"/>
		<path class="st0" d="M190.7,23.8c-0.9,2.4-2.7,3.3-4.9,2.9v-0.9c2,0.3,3.3-0.3,4.1-2.4l0.6-1.6l-4.8-12.7h1l4.3,11.4l4.3-11.4h1
			L190.7,23.8z"/>
	</g>
</g>
</svg>
